<svg width="20" height="20" viewBox="0 0 20 20" fill="none" xmlns="http://www.w3.org/2000/svg">
<path d="M15.1974 4.93358C14.1641 3.18284 12.6971 1.72787 10.938 0.70897L10.625 0.527954L10.312 0.70897C8.52294 1.74146 7.03734 3.22695 6.00471 5.01597C4.97208 6.80498 4.42886 8.83442 4.42969 10.9001C4.42969 11.0346 4.43203 11.1713 4.4366 11.3063C4.49879 13.1366 5.19875 14.6767 6.46082 15.7601C7.4266 16.5892 8.66543 17.0954 10.0002 17.2161V19.375H11.2502V9.37498H10V15.9581C7.88813 15.7135 5.78621 14.2216 5.68578 11.2638C5.68164 11.1429 5.67953 11.0205 5.67953 10.9001C5.68327 9.11645 6.13879 7.36286 7.00359 5.80292C7.86839 4.24299 9.11428 2.92756 10.625 1.9794C12.1357 2.92758 13.3815 4.24302 14.2463 5.80295C15.1111 7.36288 15.5666 9.11647 15.5703 10.9001C15.5703 11.0205 15.5682 11.1429 15.5641 11.2639C15.4838 13.63 14.1224 15.0579 12.4998 15.6598V16.9827C13.3418 16.7441 14.1226 16.3271 14.7892 15.7601C16.0513 14.6767 16.7512 13.1365 16.8134 11.3063C16.818 11.1713 16.8203 11.0346 16.8203 10.9C16.8214 8.80202 16.2611 6.74195 15.1974 4.93358Z" fill="#34C759"/>
</svg>
