<svg width="20" height="20" viewBox="0 0 20 20" fill="none" xmlns="http://www.w3.org/2000/svg">
<path d="M4.31888 17.3467C2.68705 15.8255 1.66663 13.6569 1.66663 11.25C1.66663 6.64761 5.39758 2.91666 9.99996 2.91666C14.6023 2.91666 18.3333 6.64761 18.3333 11.25C18.3333 13.6569 17.3129 15.8255 15.681 17.3467" stroke="#34C759" stroke-width="2" stroke-linecap="round" stroke-linejoin="round"/>
<path d="M6.30721 15.2129C5.24654 14.2241 4.58325 12.8145 4.58325 11.25C4.58325 8.25844 7.00838 5.83331 9.99992 5.83331C12.9915 5.83331 15.4166 8.25844 15.4166 11.25C15.4166 12.8145 14.7533 14.2241 13.6926 15.2129" stroke="#34C759" stroke-width="2" stroke-linecap="round" stroke-linejoin="round"/>
<path d="M8.29567 13.079C7.80612 12.6227 7.5 11.9721 7.5 11.25C7.5 9.86929 8.61929 8.75 10 8.75C11.3807 8.75 12.5 9.86929 12.5 11.25C12.5 11.9721 12.1939 12.6227 11.7043 13.079" stroke="#34C759" stroke-width="2" stroke-linecap="round" stroke-linejoin="round"/>
</svg>
