<svg width="142" height="39" viewBox="0 0 142 39" fill="none" xmlns="http://www.w3.org/2000/svg">
<path d="M0.77832 15L1.20909 14.5L1.74755 13.4L2.17832 12.2L2.60909 11.8L3.14755 12.7L3.57832 15L4.00909 18.2L4.54755 21.4L4.97832 23.3L5.40909 23L5.94755 20.1L6.37832 15L6.80909 9.5L7.34755 5.4L7.77832 4L8.20909 5.4L8.74755 9.5L9.17832 15L9.60909 20.5L10.1476 24.6L10.5783 26L11.0091 24.6L11.5476 20.5L11.9783 15L12.4091 9.5L12.9476 5.4L13.3783 4L13.8091 5.4L14.3476 9.5L14.7783 15L15.2091 20.5L15.7476 24.6L16.1783 26L16.6091 24.6L17.1476 20.5L17.5783 15L18.0091 9.5L18.5476 5.4L18.9783 4L19.4091 5.4L19.9476 9.5L20.3783 15L20.8091 20.5L21.3476 24.6L21.7783 26L22.2091 24.6L22.7476 20.5L23.1783 15L23.6091 9.5L24.1476 5.4L24.5783 4L25.0091 5.4L25.5476 9.5L25.9783 15L26.4091 20.5L26.9476 24.6L27.3783 26L27.8091 24.6L28.3476 20.5L28.7783 15L29.2091 9.5L29.7476 5.4L30.1783 4L30.6091 5.4L31.1476 9.5L31.5783 15L32.0091 20.5L32.5476 24.6L32.9783 26L33.4091 24.6L33.9476 20.5L34.3783 15L34.8091 9.5L35.3476 5.4L35.7783 4L36.2091 5.4L36.7476 9.5L37.1783 15L37.6091 20.5L38.1476 24.6L38.5783 26L39.0091 24.6L39.5476 20.5L39.9783 15L40.4091 9.5L40.9476 5.4L41.3783 4L41.8091 5.4L42.3476 9.5L42.7783 15L43.2091 20.5L43.7476 24.6L44.1783 26L44.6091 24.6L45.1476 20.5L45.5783 15L46.0091 9.5L46.5476 5.4L46.9783 4L47.4091 5.4L47.9476 9.5L48.3783 15L48.8091 20.5L49.3476 24.6L49.7783 26L50.2091 24.6L50.7476 20.5L51.1783 15L51.6091 9.5L52.1476 5.4L52.5783 4L53.0091 5.4L53.5476 9.5L53.9783 15L54.4091 20.5L54.9476 24.6L55.3783 26L55.8091 24.6L56.3476 20.5L56.7783 15L57.2091 9.5L57.7476 5.4L58.1783 4L58.6091 5.4L59.1476 9.5L59.5783 15L60.0091 20.5L60.5476 24.6L60.9783 26L61.4091 24.6L61.9476 20.5L62.3783 15L62.8091 9.5L63.3476 5.4L63.7783 4L64.2091 5.4L64.7476 9.5L65.1783 15L65.6091 20.5L66.1476 24.6L66.5783 26L67.0091 24.6L67.5476 20.5L67.9783 15L68.4091 9.5L68.9476 5.4L69.3783 4L69.8091 5.4L70.3476 9.5L70.7783 15L71.2091 20.5L71.7476 24.6L72.1783 26L72.6091 24.6L73.1476 20.5L73.5783 15L74.0091 9.5L74.5476 5.4L74.9783 4L75.4091 5.4L75.9476 9.5L76.3783 15L76.8091 20.5L77.3476 24.6L77.7783 26L78.2091 24.6L78.7476 20.5L79.1783 15L79.6091 9.5L80.1476 5.4L80.5783 4L81.0091 5.4L81.5476 9.5L81.9783 15L82.4091 20.5L82.9476 24.6L83.3783 26L83.8091 24.6L84.3476 20.5L84.7783 15L85.2091 9.5L85.7476 5.4L86.1783 4L86.6091 5.4L87.1476 9.5L87.5783 15L88.0091 20.5L88.5476 24.6L88.9783 26L89.4091 24.6L89.9476 20.5L90.3783 15L90.8091 9.5L91.3476 5.4L91.7783 4L92.2091 5.4L92.7476 9.5L93.1783 15L93.6091 20.5L94.1476 24.6L94.5783 26L95.0091 24.6L95.5476 20.5L95.9783 15L96.4091 9.5L96.9476 5.4L97.3783 4L97.8091 5.4L98.3476 9.5L98.7783 15L99.2091 20.5L99.7476 24.6L100.178 26L100.609 24.6L101.148 20.5L101.578 15L102.009 9.5L102.548 5.4L102.978 4L103.409 5.4L103.948 9.5L104.378 15L104.809 20.5L105.348 24.6L105.778 26L106.209 24.6L106.748 20.5L107.178 15L107.609 9.5L108.148 5.4L108.578 4L109.009 5.4L109.548 9.5L109.978 15L110.409 20.5L110.948 24.6L111.378 26L111.809 24.6L112.348 20.5L112.778 15L113.209 9.5L113.748 5.4L114.178 4L114.609 5.4L115.148 9.5L115.578 15L116.009 20.5L116.548 24.6L116.978 26L117.409 24.6L117.948 20.5L118.378 15L118.809 9.5L119.348 5.4L119.778 4L120.209 5.4L120.748 9.5L121.178 15L121.609 20.5L122.148 24.6L122.578 26L123.009 24.6L123.548 20.5L123.978 15L124.409 9.5L124.948 5.4L125.378 4L125.809 5.4L126.348 9.5L126.778 15L127.209 20.5L127.748 24.6L128.178 26L128.609 24.6L129.148 20.5L129.578 15L130.009 9.5L130.548 5.4L130.978 4L131.409 5.4L131.948 9.5L132.378 15L132.809 20.5L133.348 24.6L133.778 26L134.209 24.6L134.748 20.5L135.178 15L135.609 9.9L136.148 7L136.578 6.7L137.009 8.6L137.548 11.8L137.978 15L138.409 17.3L138.948 18.2L139.378 17.8L139.809 16.6L140.348 15.5L140.778 15" stroke="#767D85" stroke-width="1.55662" stroke-linecap="round" stroke-linejoin="round"/>
</svg>
