<svg width="142" height="39" viewBox="0 0 142 39" fill="none" xmlns="http://www.w3.org/2000/svg">
<path d="M0.77832 15H1.20909H1.74755H2.17832H2.60909H3.14755H3.57832H4.00909H4.54755H4.97832H5.40909H5.94755H6.37832H6.80909H7.34755H7.77832H8.20909H8.74755H9.17832H9.60909H10.1476H10.5783H11.0091H11.5476H11.9783H12.4091H12.9476H13.3783H13.8091H14.3476H14.7783H15.2091H15.7476H16.1783H16.6091H17.1476H17.5783H18.0091H18.5476H18.9783H19.4091H19.9476H20.3783H20.8091H21.3476H21.7783H22.2091H22.7476H23.1783H23.6091H24.1476H24.5783H25.0091H25.5476H25.9783H26.4091H26.9476H27.3783H27.8091H28.3476H28.7783H29.2091H29.7476H30.1783H30.6091L31.1476 14.9L31.5783 14.8H32.0091H32.5476L32.9783 15.1L33.4091 15.5L33.9476 16L34.3783 16.4H34.8091L35.3476 16L35.7783 15L36.2091 13.7L36.7476 12.3L37.1783 11.4H37.6091L38.1476 12.4L38.5783 14.4L39.0091 17L39.5476 19.4L39.9783 21.1L40.4091 21.3L40.9476 19.8L41.3783 16.9L41.8091 13L42.3476 9.3L42.7783 6.8L43.2091 6.1L43.7476 7.8L44.1783 11.4L44.6091 16.2L45.1476 21L45.5783 24.4L46.0091 25.6L46.5476 24.1L46.9783 20.2L47.4091 15L47.9476 9.7L48.3783 5.7L48.8091 4L49.3476 5.1L49.7783 8.6L50.2091 13.7L50.7476 18.9L51.1783 23L51.6091 25L52.1476 24.4L52.5783 21.6L53.0091 17.3L53.5476 12.8L53.9783 9.1L54.4091 7.1L54.9476 7.3L55.3783 9.2L55.8091 12.4L56.3476 15.8L56.7783 18.6L57.2091 20.2L57.7476 20.3L58.1783 19.1L58.6091 17.1L59.1476 15L59.5783 13.3L60.0091 12.3L60.5476 12.2L60.9783 12.8L61.4091 13.8L61.9476 14.8L62.3783 15.5L62.8091 15.9L63.3476 15.8L63.7783 15.6L64.2091 15.3L64.7476 15.1L65.1783 15H65.6091H66.1476H66.5783H67.0091H67.5476H67.9783H68.4091H68.9476H69.3783H69.8091H70.3476H70.7783L71.2091 14.9L71.7476 14.6L72.1783 14.4L72.6091 14.2L73.1476 14.3L73.5783 14.8L74.0091 15.6L74.5476 16.6L74.9783 17.3L75.4091 17.6L75.9476 17.2L76.3783 15.9L76.8091 14L77.3476 12L77.7783 10.4L78.2091 9.8L78.7476 10.6L79.1783 12.7L79.6091 15.8L80.1476 19.1L80.5783 21.8L81.0091 22.9L81.5476 22L81.9783 19.2L82.4091 15L82.9476 10.5L83.3783 6.9L83.8091 5.1L84.3476 5.8L84.7783 8.9L85.2091 13.7L85.7476 19L86.1783 23.4L86.6091 25.8L87.1476 25.5L87.5783 22.6L88.0091 17.7L88.5476 12.3L88.9783 7.6L89.4091 4.8L89.9476 4.6L90.3783 7L90.8091 11.3L91.3476 16.2L91.7783 20.7L92.2091 23.5L92.7476 24L93.1783 22.3L93.6091 19L94.1476 15L94.5783 11.4L95.0091 9L95.5476 8.4L95.9783 9.4L96.4091 11.6L96.9476 14.3L97.3783 16.8L97.8091 18.4L98.3476 18.9L98.7783 18.4L99.2091 17.2L99.7476 15.7L100.178 14.4L100.609 13.6L101.148 13.4L101.578 13.6L102.009 14.1L102.548 14.7L102.978 15.1L103.409 15.3H103.948L104.378 15.2L104.809 15.1L105.348 15H105.778H106.209H106.748H107.178H107.609H108.148H108.578H109.009H109.548H109.978H110.409H110.948H111.378H111.809H112.348H112.778H113.209H113.748H114.178H114.609H115.148H115.578H116.009H116.548H116.978H117.409H117.948H118.378H118.809H119.348H119.778H120.209H120.748H121.178H121.609H122.148H122.578H123.009H123.548H123.978H124.409H124.948H125.378H125.809H126.348H126.778H127.209H127.748H128.178H128.609H129.148H129.578H130.009H130.548H130.978H131.409H131.948H132.378H132.809H133.348H133.778H134.209H134.748H135.178H135.609H136.148H136.578H137.009H137.548H137.978H138.409H138.948H139.378H139.809H140.348H140.778" stroke="#767D85" stroke-width="1.55662" stroke-linecap="round" stroke-linejoin="round"/>
</svg>
