<svg width="142" height="39" viewBox="0 0 142 39" fill="none" xmlns="http://www.w3.org/2000/svg">
<path d="M0.77832 15H1.20909H1.74755H2.17832H2.60909H3.14755H3.57832H4.00909H4.54755H4.97832H5.40909H5.94755H6.37832H6.80909H7.34755H7.77832H8.20909H8.74755H9.17832H9.60909H10.1476H10.5783H11.0091H11.5476H11.9783H12.4091L12.9476 14.9L13.3783 14.8L13.8091 14.6H14.3476L14.7783 14.7L15.2091 14.9L15.7476 15.3L16.1783 15.8L16.6091 16.1L17.1476 16.3L17.5783 16L18.0091 15.4L18.5476 14.5L18.9783 13.6L19.4091 12.9L19.9476 12.6L20.3783 13L20.8091 14L21.3476 15.4L21.7783 16.8L22.2091 18L22.7476 18.5L23.1783 18.1L23.6091 16.8L24.1476 15L24.5783 13L25.0091 11.5L25.5476 10.7L25.9783 11L26.4091 12.4L26.9476 14.4L27.3783 16.7L27.8091 18.5L28.3476 19.5L28.7783 19.4L29.2091 18.2L29.7476 16.1L30.1783 13.9L30.6091 11.9L31.1476 10.8L31.5783 10.7L32.0091 11.7L32.5476 13.5L32.9783 15.5L33.4091 17.3L33.9476 18.4L34.3783 18.6L34.8091 17.9L35.3476 16.6L35.7783 15L36.2091 13.6L36.7476 12.7L37.1783 12.4L37.6091 12.8L38.1476 13.7L38.5783 14.7L39.0091 15.7L39.5476 16.3L39.9783 16.5L40.4091 16.3L40.9476 15.8L41.3783 15.2L41.8091 14.8L42.3476 14.5L42.7783 14.4L43.2091 14.5L43.7476 14.7L44.1783 14.9L44.6091 15L45.1476 15.1H45.5783L46.0091 15H46.5476H46.9783H47.4091H47.9476H48.3783H48.8091H49.3476L49.7783 14.9L50.2091 15L50.7476 15.1L51.1783 15.3L51.6091 15.6L52.1476 15.7H52.5783L53.0091 15.3L53.5476 14.6L53.9783 13.9L54.4091 13.2L54.9476 12.8L55.3783 13.1L55.8091 14L56.3476 15.4L56.7783 17L57.2091 18.4L57.7476 19L58.1783 18.7L58.6091 17.2L59.1476 15L59.5783 12.5L60.0091 10.3L60.5476 9.2L60.9783 9.5L61.4091 11.3L61.9476 14.2L62.3783 17.5L62.8091 20.4L63.3476 22L63.7783 21.9L64.2091 20.1L64.7476 16.9L65.1783 13.1L65.6091 9.7L66.1476 7.7L66.5783 7.4L67.0091 9.1L67.5476 12.2L67.9783 16L68.4091 19.4L68.9476 21.7L69.3783 22.3L69.8091 21L70.3476 18.3L70.7783 15L71.2091 11.8L71.7476 9.7L72.1783 9L72.6091 9.8L73.1476 11.8L73.5783 14.3L74.0091 16.8L74.5476 18.6L74.9783 19.3L75.4091 18.8L75.9476 17.5L76.3783 15.8L76.8091 14.2L77.3476 13.1L77.7783 12.6L78.2091 12.8L78.7476 13.5L79.1783 14.4L79.6091 15.2L80.1476 15.7L80.5783 15.9L81.0091 15.8L81.5476 15.5L81.9783 15.2L82.4091 15L82.9476 14.9H83.3783L83.8091 15H84.3476H84.7783H85.2091H85.7476H86.1783H86.6091H87.1476H87.5783H88.0091H88.5476L88.9783 14.9L89.4091 14.8L89.9476 14.6H90.3783L90.8091 14.7L91.3476 15.1L91.7783 15.7L92.2091 16.3L92.7476 16.8H93.1783L93.6091 16.2L94.1476 15L94.5783 13.5L95.0091 12L95.5476 11.1H95.9783L96.4091 12.2L96.9476 14.4L97.3783 17L97.8091 19.6L98.3476 21.2L98.7783 21.4L99.2091 19.9L99.7476 16.9L100.178 13L100.609 9.3L101.148 6.8L101.578 6.2L102.009 7.9L102.548 11.5L102.978 16.2L103.409 20.9L103.948 24.3L104.378 25.5L104.809 24L105.348 20.2L105.778 15L106.209 9.7L106.748 5.7L107.178 4L107.609 5L108.148 8.5L108.578 13.6L109.009 19L109.548 23.2L109.978 25.3L110.409 24.8L110.948 21.9L111.378 17.4L111.809 12.6L112.348 8.7L112.778 6.5H113.209L113.748 8.6L114.178 12.1L114.609 15.9L115.148 19.2L115.578 21.1L116.009 21.3L116.548 20L116.978 17.7L117.409 15L117.948 12.7L118.378 11.4L118.809 11.1L119.348 11.8L119.778 13.2L120.209 14.7L120.748 15.9L121.178 16.6L121.609 16.7L122.148 16.4L122.578 15.8L123.009 15.2L123.548 14.8L123.978 14.6H124.409L124.948 14.8L125.378 14.9L125.809 15H126.348H126.778H127.209H127.748H128.178H128.609H129.148H129.578H130.009H130.548H130.978H131.409H131.948H132.378H132.809H133.348H133.778H134.209H134.748H135.178H135.609H136.148H136.578H137.009H137.548H137.978H138.409H138.948H139.378H139.809H140.348H140.778" stroke="#767D85" stroke-width="1.55662" stroke-linecap="round" stroke-linejoin="round"/>
</svg>
