<svg width="42" height="42" viewBox="0 0 42 42" fill="none" xmlns="http://www.w3.org/2000/svg">
<path d="M21 9.45001C23.0278 9.45001 24.675 7.80282 24.675 5.77501C24.675 3.74719 23.0278 2.10001 21 2.10001C18.9722 2.10001 17.325 3.74719 17.325 5.77501C17.325 7.80282 18.9722 9.45001 21 9.45001ZM15.3169 19.1559L16.8 17.6728V22.2206C16.8 24.0581 17.6006 25.8103 18.9984 27.0047L23.6841 31.0209C24.0712 31.3556 24.3272 31.815 24.3994 32.3203L25.2262 38.1019C25.3903 39.2503 26.4534 40.0509 27.6019 39.8869C28.7503 39.7228 29.5509 38.6597 29.3869 37.5113L28.56 31.7297C28.3434 30.2138 27.5822 28.8356 26.4206 27.8381L24.1566 25.8956V18.3356L24.4059 18.6441C25.6003 20.1403 27.4116 21.0066 29.3278 21.0066H31.5066C32.6681 21.0066 33.6066 20.0681 33.6066 18.9066C33.6066 17.745 32.6681 16.8066 31.5066 16.8066H29.3278C28.6912 16.8066 28.0875 16.5178 27.6872 16.0191L26.5125 14.5491C25.0031 12.6591 22.7128 11.5566 20.2913 11.5566C18.1781 11.5566 16.1503 12.3966 14.6606 13.8928L12.3441 16.1831C11.1628 17.3644 10.5 18.9656 10.5 20.6391V23.1C10.5 24.2616 11.4384 25.2 12.6 25.2C13.7616 25.2 14.7 24.2616 14.7 23.1V20.6391C14.7 20.0813 14.9231 19.5497 15.3169 19.1559ZM16.1306 30.9291C16.0322 31.2703 15.8484 31.5853 15.5991 31.8347L11.1169 36.3169C10.2966 37.1372 10.2966 38.4694 11.1169 39.2897C11.9372 40.11 13.2694 40.11 14.0897 39.2897L18.5719 34.8075C19.3266 34.0528 19.8778 33.1144 20.1731 32.0841L20.3175 31.5853L17.2988 28.9997C17.1347 28.8553 16.9706 28.7109 16.8131 28.5534L16.1306 30.9291Z" fill="#7196B2"/>
</svg>
