<svg width="142" height="39" viewBox="0 0 142 39" fill="none" xmlns="http://www.w3.org/2000/svg">
<path d="M0.77832 15H1.20909H1.74755H2.17832H2.60909H3.14755H3.57832H4.00909H4.54755H4.97832H5.40909H5.94755H6.37832H6.80909H7.34755H7.77832H8.20909H8.74755H9.17832H9.60909H10.1476H10.5783H11.0091H11.5476H11.9783H12.4091H12.9476H13.3783H13.8091H14.3476H14.7783H15.2091H15.7476H16.1783H16.6091H17.1476H17.5783H18.0091H18.5476H18.9783H19.4091H19.9476H20.3783H20.8091H21.3476H21.7783H22.2091H22.7476H23.1783H23.6091H24.1476H24.5783H25.0091H25.5476H25.9783H26.4091H26.9476H27.3783H27.8091L28.3476 14.9L28.7783 14.7L29.2091 14.5L29.7476 14.4H30.1783L30.6091 14.8L31.1476 15.5L31.5783 16.5L32.0091 17.4L32.5476 18H32.9783L33.4091 17.2L33.9476 15.8L34.3783 13.9L34.8091 12L35.3476 10.4L35.7783 9.80001L36.2091 10.1L36.7476 11.5L37.1783 13.6L37.6091 16L38.1476 18.2L38.5783 19.6L39.0091 20L39.5476 19.4L39.9783 18.1L40.4091 16.3L40.9476 14.5L41.3783 13.2L41.8091 12.5H42.3476L42.7783 13L43.2091 13.7L43.7476 14.5L44.1783 15.1L44.6091 15.4H45.1476L45.5783 15.3H46.0091L46.5476 15.4H46.9783L47.4091 15L47.9476 14.3L48.3783 13.3L48.8091 12.3L49.3476 11.7L49.7783 11.8L50.2091 12.7L50.7476 14.7L51.1783 17.2L51.6091 19.9L52.1476 22L52.5783 22.9L53.0091 22.2L53.5476 19.9L53.9783 16.2L54.4091 11.9L54.9476 7.90001L55.3783 5.10001L55.8091 4.10001L56.3476 5.40001L56.7783 8.50001L57.2091 12.9L57.7476 17.7L58.1783 21.8L58.6091 24.4L59.1476 25L59.5783 23.7L60.0091 20.8L60.5476 17.1L60.9783 13.5L61.4091 10.7L61.9476 9.10001L62.3783 9.00001L62.8091 10L63.3476 11.8L63.7783 13.8L64.2091 15.4L64.7476 16.5L65.1783 16.9L65.6091 16.7L66.1476 16.2L66.5783 15.6L67.0091 15.2L67.5476 15H67.9783H68.4091H68.9476H69.3783H69.8091H70.3476H70.7783H71.2091H71.7476H72.1783H72.6091H73.1476H73.5783H74.0091H74.5476H74.9783H75.4091H75.9476H76.3783H76.8091H77.3476H77.7783H78.2091H78.7476H79.1783H79.6091H80.1476H80.5783H81.0091H81.5476H81.9783H82.4091H82.9476H83.3783H83.8091H84.3476L84.7783 15.2L85.2091 15.4L85.7476 15.7L86.1783 16L86.6091 15.9L87.1476 15.5L87.5783 14.7L88.0091 13.6L88.5476 12.5L88.9783 11.7L89.4091 11.4L89.9476 12L90.3783 13.4L90.8091 15.3L91.3476 17.4L91.7783 19.2L92.2091 20.3H92.7476L93.1783 19.3L93.6091 17.3L94.1476 15L94.5783 12.8L95.0091 11.1L95.5476 10.4L95.9783 10.6L96.4091 11.7L96.9476 13.2L97.3783 14.8L97.8091 16.1L98.3476 16.9L98.7783 17L99.2091 16.7L99.7476 16.2L100.178 15.6L100.609 15.1L101.148 14.9L101.578 14.8H102.009L102.548 14.5L102.978 14.3H103.409L103.948 14.7L104.378 15.5L104.809 16.8L105.348 18L105.778 19L106.209 19.2L106.748 18.4L107.178 16.5L107.609 13.7L108.148 10.7L108.578 8.00001L109.009 6.40001L109.548 6.50001L109.978 8.40001L110.409 11.9L110.948 16.3L111.378 20.7L111.809 24.2L112.348 25.9L112.778 25.5L113.209 23L113.748 19L114.178 14.3L114.609 10L115.148 6.90001L115.578 5.60001L116.009 6.20001L116.548 8.40001L116.978 11.6L117.409 15L117.948 17.9L118.378 19.6L118.809 20.2L119.348 19.6L119.778 18.2L120.209 16.6L120.748 15.2L121.178 14.2L121.609 13.8H122.148L122.578 14.2L123.009 14.6L123.548 14.9L123.978 15H124.409H124.948H125.378H125.809H126.348H126.778H127.209H127.748H128.178H128.609H129.148H129.578H130.009H130.548H130.978H131.409H131.948H132.378H132.809H133.348H133.778H134.209H134.748H135.178H135.609H136.148H136.578H137.009H137.548H137.978H138.409H138.948H139.378H139.809H140.348H140.778" stroke="#767D85" stroke-width="1.55662" stroke-linecap="round" stroke-linejoin="round"/>
</svg>
