<svg width="120" height="120" viewBox="0 0 120 120" fill="none" xmlns="http://www.w3.org/2000/svg">
<mask id="mask0_61_5442" style="mask-type:luminance" maskUnits="userSpaceOnUse" x="6" y="6" width="108" height="109">
<path d="M60 110C66.5673 110.008 73.0714 108.719 79.1388 106.205C85.2061 103.692 90.7171 100.005 95.355 95.355C100.005 90.7171 103.692 85.2062 106.205 79.1388C108.718 73.0715 110.008 66.5673 110 60C110.008 53.4328 108.718 46.9286 106.205 40.8613C103.692 34.7939 100.005 29.283 95.355 24.645C90.7171 19.9954 85.2061 16.3081 79.1388 13.7948C73.0714 11.2816 66.5673 9.99194 60 10C53.4327 9.99194 46.9286 11.2816 40.8612 13.7948C34.7939 16.3081 29.2829 19.9954 24.645 24.645C19.9954 29.283 16.3081 34.7939 13.7948 40.8613C11.2815 46.9286 9.99191 53.4328 10 60C9.99191 66.5673 11.2815 73.0715 13.7948 79.1388C16.3081 85.2062 19.9954 90.7171 24.645 95.355C29.2829 100.005 34.7939 103.692 40.8612 106.205C46.9286 108.719 53.4327 110.008 60 110Z" fill="white" stroke="white" stroke-width="8" stroke-linejoin="round"/>
<path d="M40 60L55 75L85 45" stroke="black" stroke-width="8" stroke-linecap="round" stroke-linejoin="round"/>
</mask>
<g mask="url(#mask0_61_5442)">
<path d="M0 0H120V120H0V0Z" fill="#4F9E7F"/>
</g>
</svg>
