<svg width="48" height="48" viewBox="0 0 48 48" fill="none" xmlns="http://www.w3.org/2000/svg">
<path d="M13 4C15.0387 4 16.7153 4.98933 18.03 6.968C19.3433 8.94533 20 11.2893 20 14C20 15.5467 19.7753 17.1093 19.326 18.688C18.8753 20.268 18.402 21.618 17.906 22.738L9.16 24.86C8.19867 23.304 7.432 21.642 6.86 19.874C6.288 18.106 6.00133 16.148 6 14C6 11.1307 6.664 8.74667 7.992 6.848C9.32 4.94933 10.9893 4 13 4ZM15.75 34C13.9993 34 12.606 33.31 11.57 31.93C10.5367 30.5487 10.0133 28.8 10 26.684L18.324 24.7C18.7187 25.3693 19.0967 26.1073 19.458 26.914C19.8193 27.7207 20 28.5327 20 29.35C20 30.686 19.6007 31.7953 18.802 32.678C18.0033 33.5607 16.986 34.0013 15.75 34ZM35 14C37.0107 14 38.68 14.9493 40.008 16.848C41.336 18.7467 42 21.1307 42 24C42 26.2227 41.6887 28.2313 41.066 30.026C40.4433 31.8207 39.6253 33.534 38.612 35.166L30.016 32.586C29.5467 31.4647 29.0933 30.1333 28.656 28.592C28.2187 27.052 28 25.5213 28 24C28 21.2893 28.6573 18.9453 29.972 16.968C31.284 14.9893 32.96 14 35 14ZM32.25 44C31.014 44 29.9967 43.5587 29.198 42.676C28.3993 41.7933 28 40.6853 28 39.352C28 38.508 28.1933 37.67 28.58 36.838C28.9667 36.006 29.358 35.2427 29.754 34.548L37.988 37.072C37.924 39.032 37.3767 40.6773 36.346 42.008C35.3153 43.336 33.95 44 32.25 44Z" fill="#5187BD"/>
</svg>
