<svg width="20" height="20" viewBox="0 0 20 20" fill="none" xmlns="http://www.w3.org/2000/svg">
<path d="M3.33329 5C2.89127 5 2.46734 5.17559 2.15478 5.48816C1.84222 5.80072 1.66663 6.22464 1.66663 6.66667V13.3333C1.66663 13.7754 1.84222 14.1993 2.15478 14.5118C2.46734 14.8244 2.89127 15 3.33329 15H15C15.442 15 15.8659 14.8244 16.1785 14.5118C16.491 14.1993 16.6666 13.7754 16.6666 13.3333V12.5C17.1087 12.5 17.5326 12.3244 17.8451 12.0118C18.1577 11.6993 18.3333 11.2754 18.3333 10.8333V9.16667C18.3333 8.72464 18.1577 8.30072 17.8451 7.98816C17.5326 7.6756 17.1087 7.5 16.6666 7.5V6.66667C16.6666 6.22464 16.491 5.80072 16.1785 5.48816C15.8659 5.17559 15.442 5 15 5H3.33329Z" fill="#767D85"/>
</svg>
