<svg width="16" height="16" viewBox="0 0 16 16" fill="none" xmlns="http://www.w3.org/2000/svg">
<path d="M7.99999 1.33325C11.682 1.33325 14.6667 4.31792 14.6667 7.99992C14.6667 11.6819 11.682 14.6666 7.99999 14.6666C4.31799 14.6666 1.33333 11.6819 1.33333 7.99992C1.33333 4.31792 4.31799 1.33325 7.99999 1.33325ZM7.99999 10.6666C7.82318 10.6666 7.65361 10.7368 7.52859 10.8618C7.40357 10.9869 7.33333 11.1564 7.33333 11.3333C7.33333 11.5101 7.40357 11.6796 7.52859 11.8047C7.65361 11.9297 7.82318 11.9999 7.99999 11.9999C8.17681 11.9999 8.34637 11.9297 8.4714 11.8047C8.59642 11.6796 8.66666 11.5101 8.66666 11.3333C8.66666 11.1564 8.59642 10.9869 8.4714 10.8618C8.34637 10.7368 8.17681 10.6666 7.99999 10.6666ZM7.99999 4.33325C7.35905 4.33325 6.74437 4.58786 6.29115 5.04108C5.83794 5.49429 5.58333 6.10898 5.58333 6.74992C5.58333 6.92673 5.65357 7.0963 5.77859 7.22132C5.90361 7.34635 6.07318 7.41658 6.24999 7.41658C6.42681 7.41658 6.59637 7.34635 6.7214 7.22132C6.84642 7.0963 6.91666 6.92673 6.91666 6.74992C6.91688 6.55328 6.97062 6.3604 7.07212 6.19198C7.17361 6.02355 7.31904 5.88593 7.4928 5.79386C7.66656 5.7018 7.8621 5.65877 8.05845 5.66938C8.25481 5.67999 8.44458 5.74385 8.6074 5.8541C8.77023 5.96436 8.89997 6.11685 8.98273 6.29523C9.06548 6.47361 9.09812 6.67116 9.07715 6.86668C9.05618 7.0622 8.98238 7.24832 8.86368 7.4051C8.74497 7.56187 8.58583 7.68337 8.40333 7.75659C7.95266 7.93658 7.33333 8.39792 7.33333 9.16658V9.33325C7.33333 9.51006 7.40357 9.67963 7.52859 9.80466C7.65361 9.92968 7.82318 9.99992 7.99999 9.99992C8.17681 9.99992 8.34637 9.92968 8.4714 9.80466C8.59642 9.67963 8.66666 9.51006 8.66666 9.33325C8.66666 9.17058 8.69999 9.08925 8.84066 9.01992L8.89866 8.99325C9.4192 8.78385 9.85069 8.39989 10.1192 7.9072C10.3876 7.41451 10.4763 6.84377 10.3701 6.29284C10.2638 5.74191 9.96925 5.24509 9.53682 4.88757C9.1044 4.53004 8.56108 4.33407 7.99999 4.33325Z" fill="#5187BD"/>
</svg>
