<svg width="142" height="39" viewBox="0 0 142 39" fill="none" xmlns="http://www.w3.org/2000/svg">
<path d="M0.77832 15H1.20909H1.74755H2.17832H2.60909H3.14755H3.57832H4.00909H4.54755H4.97832H5.40909H5.94755H6.37832H6.80909H7.34755H7.77832H8.20909H8.74755H9.17832H9.60909H10.1476H10.5783H11.0091H11.5476H11.9783H12.4091H12.9476H13.3783H13.8091H14.3476H14.7783H15.2091H15.7476H16.1783H16.6091H17.1476H17.5783H18.0091H18.5476H18.9783H19.4091H19.9476H20.3783H20.8091H21.3476H21.7783H22.2091H22.7476H23.1783H23.6091H24.1476H24.5783H25.0091H25.5476H25.9783H26.4091H26.9476H27.3783H27.8091H28.3476H28.7783H29.2091H29.7476H30.1783H30.6091L31.1476 14.9H31.5783H32.0091H32.5476L32.9783 15L33.4091 15.2L33.9476 15.4L34.3783 15.5H34.8091L35.3476 15.3L35.7783 15L36.2091 14.6L36.7476 14.2L37.1783 13.9H37.6091L38.1476 14.2L38.5783 14.8L39.0091 15.6L39.5476 16.3L39.9783 16.8L40.4091 16.9L40.9476 16.5L41.3783 15.6L41.8091 14.4L42.3476 13.2L42.7783 12.4L43.2091 12.1L43.7476 12.6L44.1783 13.8L44.6091 15.4L45.1476 17.1L45.5783 18.5L46.0091 19L46.5476 18.5L46.9783 17.1L47.4091 15L47.9476 12.7L48.3783 10.8L48.8091 9.9L49.3476 10.2L49.7783 11.8L50.2091 14.3L50.7476 17.2L51.1783 19.7L51.6091 21.2H52.1476L52.5783 19.6L53.0091 16.7L53.5476 13.2L53.9783 10.1L54.4091 8L54.9476 7.5L55.3783 9L55.8091 12.1L56.3476 16L56.7783 19.9L57.2091 22.6L57.7476 23.6L58.1783 22.4L58.6091 19.3L59.1476 15L59.5783 10.6L60.0091 7.1L60.5476 5.5L60.9783 6.3L61.4091 9.3L61.9476 13.8L62.3783 18.7L62.8091 22.8L63.3476 25L63.7783 24.8L64.2091 22.1L64.7476 17.6L65.1783 12.4L65.6091 7.7L66.1476 4.8L66.5783 4.4L67.0091 6.7L67.5476 11L67.9783 16.4L68.4091 21.4L68.9476 24.9L69.3783 26L69.8091 24.3L70.3476 20.3L70.7783 15L71.2091 9.7L71.7476 5.7L72.1783 4L72.6091 5.1L73.1476 8.6L73.5783 13.6L74.0091 19L74.5476 23.3L74.9783 25.6L75.4091 25.2L75.9476 22.3L76.3783 17.6L76.8091 12.4L77.3476 7.9L77.7783 5.2L78.2091 5L78.7476 7.2L79.1783 11.3L79.6091 16.2L80.1476 20.7L80.5783 23.7L81.0091 24.5L81.5476 22.9L81.9783 19.4L82.4091 15L82.9476 10.7L83.3783 7.6L83.8091 6.4L84.3476 7.4L84.7783 10.1L85.2091 14L85.7476 17.9L86.1783 21L86.6091 22.5L87.1476 22L87.5783 19.9L88.0091 16.8L88.5476 13.3L88.9783 10.4L89.4091 8.8H89.9476L90.3783 10.3L90.8091 12.8L91.3476 15.7L91.7783 18.2L92.2091 19.8L92.7476 20.1L93.1783 19.2L93.6091 17.3L94.1476 15L94.5783 12.9L95.0091 11.5L95.5476 11L95.9783 11.5L96.4091 12.9L96.9476 14.6L97.3783 16.2L97.8091 17.4L98.3476 17.9L98.7783 17.6L99.2091 16.8L99.7476 15.6L100.178 14.4L100.609 13.5L101.148 13.1L101.578 13.2L102.009 13.7L102.548 14.4L102.978 15.2L103.409 15.8L103.948 16.1H104.378L104.809 15.8L105.348 15.4L105.778 15L106.209 14.7L106.748 14.5H107.178L107.609 14.6L108.148 14.8L108.578 15L109.009 15.1H109.548H109.978H110.409L110.948 15H111.378H111.809H112.348H112.778H113.209H113.748H114.178H114.609H115.148H115.578H116.009H116.548H116.978H117.409H117.948H118.378H118.809H119.348H119.778H120.209H120.748H121.178H121.609H122.148H122.578H123.009H123.548H123.978H124.409H124.948H125.378H125.809H126.348H126.778H127.209H127.748H128.178H128.609H129.148H129.578H130.009H130.548H130.978H131.409H131.948H132.378H132.809H133.348H133.778H134.209H134.748H135.178H135.609H136.148H136.578H137.009H137.548H137.978H138.409H138.948H139.378H139.809H140.348H140.778" stroke="#767D85" stroke-width="1.55662" stroke-linecap="round" stroke-linejoin="round"/>
</svg>
