<svg width="60" height="60" viewBox="0 0 60 60" fill="none" xmlns="http://www.w3.org/2000/svg">
<path d="M17.5 22.5C17.5 23.163 17.2366 23.7989 16.7678 24.2678C16.2989 24.7366 15.663 25 15 25C14.337 25 13.7011 24.7366 13.2322 24.2678C12.7634 23.7989 12.5 23.163 12.5 22.5C12.5 21.837 12.7634 21.2011 13.2322 20.7322C13.7011 20.2634 14.337 20 15 20C15.663 20 16.2989 20.2634 16.7678 20.7322C17.2366 21.2011 17.5 21.837 17.5 22.5ZM17.5 30C17.5 30.663 17.2366 31.2989 16.7678 31.7678C16.2989 32.2366 15.663 32.5 15 32.5C14.337 32.5 13.7011 32.2366 13.2322 31.7678C12.7634 31.2989 12.5 30.663 12.5 30C12.5 29.337 12.7634 28.7011 13.2322 28.2322C13.7011 27.7634 14.337 27.5 15 27.5C15.663 27.5 16.2989 27.7634 16.7678 28.2322C17.2366 28.7011 17.5 29.337 17.5 30ZM25 30C25 30.663 24.7366 31.2989 24.2678 31.7678C23.7989 32.2366 23.163 32.5 22.5 32.5C21.837 32.5 21.2011 32.2366 20.7322 31.7678C20.2634 31.2989 20 30.663 20 30C20 29.337 20.2634 28.7011 20.7322 28.2322C21.2011 27.7634 21.837 27.5 22.5 27.5C23.163 27.5 23.7989 27.7634 24.2678 28.2322C24.7366 28.7011 25 29.337 25 30ZM25 22.5C25 23.163 24.7366 23.7989 24.2678 24.2678C23.7989 24.7366 23.163 25 22.5 25C21.837 25 21.2011 24.7366 20.7322 24.2678C20.2634 23.7989 20 23.163 20 22.5C20 21.837 20.2634 21.2011 20.7322 20.7322C21.2011 20.2634 21.837 20 22.5 20C23.163 20 23.7989 20.2634 24.2678 20.7322C24.7366 21.2011 25 21.837 25 22.5ZM32.5 22.5C32.5 23.163 32.2366 23.7989 31.7678 24.2678C31.2989 24.7366 30.663 25 30 25C29.337 25 28.7011 24.7366 28.2322 24.2678C27.7634 23.7989 27.5 23.163 27.5 22.5C27.5 21.837 27.7634 21.2011 28.2322 20.7322C28.7011 20.2634 29.337 20 30 20C30.663 20 31.2989 20.2634 31.7678 20.7322C32.2366 21.2011 32.5 21.837 32.5 22.5ZM32.5 30C32.5 30.663 32.2366 31.2989 31.7678 31.7678C31.2989 32.2366 30.663 32.5 30 32.5C29.337 32.5 28.7011 32.2366 28.2322 31.7678C27.7634 31.2989 27.5 30.663 27.5 30C27.5 29.337 27.7634 28.7011 28.2322 28.2322C28.7011 27.7634 29.337 27.5 30 27.5C30.663 27.5 31.2989 27.7634 31.7678 28.2322C32.2366 28.7011 32.5 29.337 32.5 30ZM40 22.5C40 23.163 39.7366 23.7989 39.2678 24.2678C38.7989 24.7366 38.163 25 37.5 25C36.837 25 36.2011 24.7366 35.7322 24.2678C35.2634 23.7989 35 23.163 35 22.5C35 21.837 35.2634 21.2011 35.7322 20.7322C36.2011 20.2634 36.837 20 37.5 20C38.163 20 38.7989 20.2634 39.2678 20.7322C39.7366 21.2011 40 21.837 40 22.5ZM40 30C40 30.663 39.7366 31.2989 39.2678 31.7678C38.7989 32.2366 38.163 32.5 37.5 32.5C36.837 32.5 36.2011 32.2366 35.7322 31.7678C35.2634 31.2989 35 30.663 35 30C35 29.337 35.2634 28.7011 35.7322 28.2322C36.2011 27.7634 36.837 27.5 37.5 27.5C38.163 27.5 38.7989 27.7634 39.2678 28.2322C39.7366 28.7011 40 29.337 40 30ZM47.5 22.5C47.5 23.163 47.2366 23.7989 46.7678 24.2678C46.2989 24.7366 45.663 25 45 25C44.337 25 43.7011 24.7366 43.2322 24.2678C42.7634 23.7989 42.5 23.163 42.5 22.5C42.5 21.837 42.7634 21.2011 43.2322 20.7322C43.7011 20.2634 44.337 20 45 20C45.663 20 46.2989 20.2634 46.7678 20.7322C47.2366 21.2011 47.5 21.837 47.5 22.5ZM47.5 30C47.5 30.663 47.2366 31.2989 46.7678 31.7678C46.2989 32.2366 45.663 32.5 45 32.5C44.337 32.5 43.7011 32.2366 43.2322 31.7678C42.7634 31.2989 42.5 30.663 42.5 30C42.5 29.337 42.7634 28.7011 43.2322 28.2322C43.7011 27.7634 44.337 27.5 45 27.5C45.663 27.5 46.2989 27.7634 46.7678 28.2322C47.2366 28.7011 47.5 29.337 47.5 30Z" fill="#527996"/>
<path fill-rule="evenodd" clip-rule="evenodd" d="M19.8625 10.625H40.1375C43.555 10.625 46.3125 10.625 48.48 10.9175C50.73 11.2175 52.625 11.8675 54.13 13.37C55.635 14.875 56.28 16.77 56.585 19.02C56.875 21.1875 56.875 23.945 56.875 27.3625V32.6375C56.875 36.055 56.875 38.8125 56.585 40.98C56.28 43.23 55.635 45.125 54.13 46.63C52.625 48.135 50.73 48.78 48.48 49.085C46.3125 49.375 43.555 49.375 40.1375 49.375H19.8625C16.445 49.375 13.6875 49.375 11.52 49.085C9.27 48.78 7.375 48.135 5.87 46.63C4.365 45.125 3.72 43.23 3.4175 40.98C3.125 38.8125 3.125 36.055 3.125 32.6375V27.3625C3.125 23.945 3.125 21.1875 3.4175 19.02C3.7175 16.77 4.3675 14.875 5.87 13.37C7.375 11.865 9.27 11.22 11.52 10.9175C13.6875 10.625 16.445 10.625 19.8625 10.625ZM12.02 14.6325C10.185 14.88 9.215 15.3325 8.5225 16.0225C7.83 16.715 7.38 17.685 7.1325 19.5225C6.88 21.4075 6.875 23.9125 6.875 27.5V32.5C6.875 36.0875 6.88 38.5925 7.1325 40.48C7.38 42.315 7.8325 43.285 8.5225 43.9775C9.215 44.67 10.185 45.12 12.0225 45.3675C13.9075 45.62 16.4125 45.625 20 45.625H40C43.5875 45.625 46.09 45.62 47.98 45.3675C49.815 45.12 50.785 44.6675 51.4775 43.9775C52.17 43.285 52.62 42.315 52.8675 40.4775C53.12 38.5925 53.125 36.0875 53.125 32.5V27.5C53.125 23.9125 53.12 21.4075 52.8675 19.52C52.62 17.685 52.1675 16.715 51.4775 16.0225C50.785 15.33 49.815 14.88 47.9775 14.6325C46.09 14.38 43.5875 14.375 40 14.375H20C16.4125 14.375 13.9075 14.38 12.02 14.6325ZM15.625 40C15.625 39.5027 15.8225 39.0258 16.1742 38.6742C16.5258 38.3225 17.0027 38.125 17.5 38.125H42.5C42.9973 38.125 43.4742 38.3225 43.8258 38.6742C44.1775 39.0258 44.375 39.5027 44.375 40C44.375 40.4973 44.1775 40.9742 43.8258 41.3258C43.4742 41.6775 42.9973 41.875 42.5 41.875H17.5C17.0027 41.875 16.5258 41.6775 16.1742 41.3258C15.8225 40.9742 15.625 40.4973 15.625 40Z" fill="#527996"/>
</svg>
