<svg width="142" height="39" viewBox="0 0 142 39" fill="none" xmlns="http://www.w3.org/2000/svg">
<path d="M0.77832 15H1.20909H1.74755H2.17832H2.60909H3.14755H3.57832H4.00909H4.54755H4.97832H5.40909H5.94755H6.37832H6.80909H7.34755H7.77832H8.20909H8.74755H9.17832H9.60909H10.1476L10.5783 15.1L11.0091 14.5L11.5476 12.8L11.9783 10.7L12.4091 9.90002L12.9476 11.6L13.3783 16.1L13.8091 21.6L14.3476 25.4L14.7783 25.5L15.2091 21.7L15.7476 15.8L16.1783 10.7L16.6091 8.30002L17.1476 9.10002L17.5783 11.7L18.0091 14.2L18.5476 15.4H18.9783L19.4091 15.1L19.9476 15H20.3783H20.8091H21.3476H21.7783H22.2091H22.7476H23.1783H23.6091L24.1476 15.1L24.5783 15.5L25.0091 16.2L25.5476 15.9L25.9783 13.9L26.4091 10.6L26.9476 7.50002L27.3783 6.90002L27.8091 9.80002L28.3476 15.5L28.7783 21.5L29.2091 25.1L29.7476 24.8L30.1783 21.1L30.6091 16.3L31.1476 12.6L31.5783 11.4L32.0091 12.2L32.5476 13.8L32.9783 14.8L33.4091 15H33.9476H34.3783H34.8091H35.3476H35.7783H36.2091H36.7476H37.1783H37.6091H38.1476L38.5783 15.2L39.0091 16.2L39.5476 17.8L39.9783 18.6L40.4091 17.4L40.9476 13.7L41.3783 8.90002L41.8091 5.20002L42.3476 4.90002L42.7783 8.50002L43.2091 14.5L43.7476 20.2L44.1783 23.1L44.6091 22.5L45.1476 19.4L45.5783 16.1L46.0091 14.1L46.5476 13.8L46.9783 14.5L47.4091 14.9L47.9476 15H48.3783H48.8091H49.3476H49.7783H50.2091H50.7476H51.1783H51.6091H52.1476H52.5783H53.0091H53.5476H53.9783H54.4091H54.9476H55.3783H55.8091H56.3476H56.7783H57.2091H57.7476H58.1783H58.6091H59.1476H59.5783H60.0091H60.5476H60.9783H61.4091H61.9476H62.3783H62.8091H63.3476L63.7783 15.4L64.2091 16.1L64.7476 16.8H65.1783L65.6091 15.6L66.1476 13.2L66.5783 10.6L67.0091 8.80002L67.5476 9.20002L67.9783 12.1L68.4091 16.8L68.9476 21.6L69.3783 24.6L69.8091 24.4L70.3476 20.8L70.7783 15L71.2091 9.20002L71.7476 5.60002L72.1783 5.40002L72.6091 8.40002L73.1476 13.2L73.5783 17.9L74.0091 20.8L74.5476 21.2L74.9783 19.4L75.4091 16.8L75.9476 14.4L76.3783 13.2H76.8091L77.3476 13.9L77.7783 14.6L78.2091 15H78.7476H79.1783H79.6091H80.1476H80.5783H81.0091H81.5476H81.9783H82.4091H82.9476H83.3783H83.8091H84.3476H84.7783H85.2091H85.7476L86.1783 14.7L86.6091 13.9L87.1476 13.1L87.5783 13L88.0091 14L88.5476 16.3L88.9783 19L89.4091 21.1L89.9476 21.2L90.3783 18.8L90.8091 14.3L91.3476 9.20002L91.7783 5.70002L92.2091 5.20002L92.7476 8.20002L93.1783 13.7L93.6091 19.6L94.1476 23.8L94.5783 24.8L95.0091 22.4L95.5476 17.8L95.9783 13L96.4091 9.80002L96.9476 8.90002L97.3783 10.3L97.8091 12.8L98.3476 15.1L98.7783 16.5L99.2091 16.8L99.7476 16.2L100.178 15.5L100.609 15.1L101.148 15H101.578H102.009H102.548H102.978H103.409H103.948H104.378H104.809H105.348H105.778H106.209H106.748H107.178L107.609 14.9H108.148L108.578 15.3L109.009 16L109.548 16.9L109.978 17.2L110.409 16.4L110.948 14.3L111.378 11.4L111.809 9.00002L112.348 8.40002L112.778 10.4L113.209 14.6L113.748 19.8L114.178 23.9L114.609 25.1L115.148 22.7L115.578 17.6L116.009 11.6L116.548 6.90002L116.978 5.20002L117.409 7.00002L117.948 11.2L118.378 16L118.809 19.6L119.348 20.9L119.778 20L120.209 17.7L120.748 15.3L121.178 13.7L121.609 13.3L122.148 13.8L122.578 14.5L123.009 14.9L123.548 15H123.978H124.409H124.948H125.378H125.809H126.348H126.778H127.209H127.748H128.178H128.609H129.148H129.578H130.009H130.548H130.978H131.409H131.948H132.378H132.809H133.348H133.778H134.209H134.748H135.178H135.609H136.148H136.578H137.009H137.548H137.978H138.409H138.948H139.378H139.809H140.348H140.778" stroke="#767D85" stroke-width="1.55662" stroke-linecap="round" stroke-linejoin="round"/>
</svg>
